<?xml version="1.0" standalone="no"?>
<!DOCTYPE svg PUBLIC "-//W3C//DTD SVG 20010904//EN"
 "http://www.w3.org/TR/2001/REC-SVG-20010904/DTD/svg10.dtd">
<svg version="1.0" xmlns="http://www.w3.org/2000/svg"
 width="600.000000pt" height="600.000000pt" viewBox="0 0 600.000000 600.000000"
 preserveAspectRatio="xMidYMid meet">

<g transform="translate(0.000000,600.000000) scale(0.100000,-0.100000)"
fill="#000000" stroke="none">
<path d="M1420 5991 c0 -5 16 -25 35 -44 23 -23 31 -37 23 -40 -7 -3 253 -6
578 -6 530 -1 592 -3 598 -17 8 -22 8 -23 -11 -18 -14 4 -18 -2 -19 -21 -3
-42 -52 -84 -99 -85 -75 -1 -117 -12 -123 -32 -3 -11 -8 -15 -11 -9 -5 7 -19
6 -44 -3 -20 -7 -34 -16 -30 -21 5 -4 3 -5 -4 -1 -14 8 -106 -37 -199 -95 -50
-32 -66 -48 -82 -88 -12 -26 -29 -54 -38 -62 -9 -7 -32 -38 -51 -69 -40 -63
-45 -69 -102 -127 -23 -24 -40 -46 -39 -50 1 -5 -8 -29 -20 -55 -12 -27 -27
-59 -32 -73 -14 -36 -32 -31 -29 8 3 35 25 67 46 67 7 0 13 5 13 10 0 18 -29
11 -50 -12 -14 -16 -20 -35 -20 -69 0 -34 -5 -51 -17 -57 -10 -6 -14 -16 -10
-26 4 -10 11 -15 16 -11 5 3 12 -4 16 -15 3 -11 11 -20 16 -20 6 0 8 -4 5 -9
-3 -5 3 -11 14 -14 11 -3 20 -10 20 -17 0 -6 -5 -8 -12 -4 -7 4 -2 -4 12 -19
14 -15 30 -27 36 -27 6 0 18 -7 25 -16 12 -15 11 -16 -11 -10 -19 6 -21 5 -10
-3 8 -6 23 -11 33 -11 10 0 15 -4 12 -10 -3 -5 -2 -10 4 -10 5 0 12 4 15 9 3
5 35 2 72 -5 47 -10 70 -11 79 -4 9 8 18 6 29 -6 9 -9 33 -17 54 -18 21 -1 43
-6 50 -10 9 -5 22 0 35 12 21 19 80 33 152 36 24 1 31 6 34 26 1 14 8 28 15
32 6 4 12 13 12 20 1 7 2 18 3 25 0 7 8 10 16 7 10 -4 13 -13 10 -25 -4 -11
-2 -19 5 -19 6 0 9 4 5 9 -7 12 8 21 43 27 15 2 39 9 54 15 16 6 36 9 46 7 10
-3 26 0 35 7 9 7 28 10 42 7 17 -3 25 0 25 9 1 8 23 -11 50 -41 28 -31 45 -57
39 -61 -7 -4 -4 -12 6 -23 9 -9 12 -16 6 -16 -6 0 -4 -11 4 -27 9 -17 11 -29
4 -33 -5 -4 17 -15 51 -25 36 -11 60 -24 60 -32 0 -10 6 -12 20 -8 11 4 20 2
20 -4 0 -6 5 -11 11 -11 5 0 7 5 4 10 -3 6 -2 10 4 10 5 0 13 -5 16 -10 4 -6
10 -8 15 -5 4 3 14 -3 21 -12 12 -15 12 -16 -6 -10 -16 6 -15 3 5 -13 14 -11
19 -20 13 -20 -15 0 -18 -40 -3 -40 15 0 12 -60 -6 -130 -14 -57 -14 -64 0
-78 15 -15 16 -14 16 12 0 25 2 27 16 15 13 -10 17 -10 24 1 5 8 6 18 4 22 -3
4 -1 8 5 8 5 0 12 8 14 18 2 9 3 1 1 -18 -2 -23 -12 -42 -29 -55 -27 -22 -32
-41 -14 -47 8 -3 9 -17 2 -50 -6 -26 -7 -52 -3 -58 4 -7 10 2 14 22 3 19 16
55 27 78 20 42 22 43 36 24 15 -18 15 -18 9 7 -4 18 -1 31 9 39 8 7 15 16 15
20 0 5 14 24 32 44 21 24 40 36 58 36 20 0 31 10 51 47 14 27 33 49 43 51 12
3 16 0 11 -8 -9 -14 -11 -15 76 29 54 28 72 33 103 27 49 -9 100 -56 130 -119
31 -64 40 -201 21 -292 -33 -154 -36 -183 -24 -250 6 -36 15 -65 20 -65 5 0 9
-8 9 -18 0 -10 12 -22 30 -29 17 -6 28 -7 24 -2 -3 5 4 9 15 9 28 0 36 19 15
36 -17 12 -17 13 -1 8 10 -4 17 -1 17 6 0 10 3 10 15 0 12 -10 15 -9 15 7 0
11 -3 23 -7 27 -12 12 -10 50 3 64 12 11 13 8 8 -16 -4 -17 -1 -32 5 -36 13
-9 13 35 -1 81 -10 36 -1 64 13 42 6 -9 7 -1 3 19 -6 28 -4 31 11 25 12 -4 16
-3 12 4 -4 6 1 25 10 44 12 23 13 34 5 37 -7 2 -12 10 -12 18 0 9 4 13 9 10 8
-5 7 22 -3 124 -2 14 -4 27 -5 30 -1 3 -4 16 -7 30 -2 14 -9 37 -15 52 -6 15
-9 33 -6 40 3 7 6 4 6 -8 1 -12 8 -21 17 -21 11 0 14 7 10 23 -4 13 -1 24 7
27 9 4 9 6 0 6 -7 1 -13 12 -13 26 0 14 -6 25 -12 25 -9 0 -9 3 1 9 12 8 12
12 2 24 -23 28 -30 73 -14 89 21 22 7 71 -18 63 -11 -4 -19 -2 -19 5 0 6 5 8
10 5 6 -3 10 1 10 9 0 9 5 16 10 16 6 0 10 10 10 23 l-1 22 -19 -24 c-11 -13
-20 -19 -20 -14 0 5 3 13 7 17 11 11 14 46 3 46 -15 0 -9 91 7 97 7 3 13 11
13 19 0 7 -6 11 -13 8 -9 -3 -14 8 -16 37 -1 24 -4 46 -7 51 -3 5 4 17 16 28
24 21 14 32 -28 30 -36 -2 -73 10 -66 22 3 5 0 15 -6 23 -10 12 -9 16 4 21 9
3 16 14 16 24 0 11 5 22 11 25 5 4 8 12 6 18 -4 12 -8 13 -43 16 -12 1 -15 8
-12 26 3 14 1 25 -3 25 -5 0 -9 -5 -9 -12 0 -8 -7 -6 -17 5 -16 16 -16 19 -3
27 17 11 16 11 -20 15 -26 3 -26 3 -22 -61 2 -35 0 -64 -4 -64 -5 0 -9 21 -9
48 0 26 -4 50 -9 53 -14 11 2 40 24 46 20 5 28 23 10 23 -5 0 -10 7 -10 15 0
8 -7 15 -15 15 -10 0 -15 10 -15 29 0 17 -4 33 -10 36 -6 4 -7 -1 -3 -11 4
-10 0 -20 -10 -25 -9 -6 -13 -17 -10 -29 3 -11 1 -20 -3 -20 -19 0 -31 16 -37
49 -6 28 -5 32 7 22 9 -8 16 -8 20 -2 3 5 -5 18 -19 29 -27 22 -32 37 -12 46
9 5 9 7 -1 12 -10 4 -10 9 -2 19 9 11 5 18 -15 31 -20 13 -23 19 -13 25 9 6 7
9 -9 9 -15 0 -23 7 -25 23 -2 17 -8 21 -30 19 -14 -2 -29 1 -32 7 -4 6 -18 6
-36 1 -27 -8 -32 -6 -45 20 -9 18 -11 30 -4 32 5 2 12 19 14 38 l5 35 -36 -37
c-19 -21 -42 -38 -50 -38 -8 0 -13 -6 -12 -12 5 -22 -45 -9 -68 17 -12 13 -24
21 -27 18 -11 -10 -44 8 -57 32 -7 14 -17 25 -22 25 -5 0 -7 -4 -4 -9 12 -19
-6 -43 -28 -36 -40 11 -65 12 -63 1 1 -6 -8 -12 -20 -14 -13 -2 -23 1 -23 7 0
6 -7 11 -15 11 -8 0 -15 4 -15 8 0 4 -9 8 -21 9 -17 2 -18 -1 -9 -12 7 -8 10
-20 7 -27 -4 -9 -6 -7 -6 4 -1 9 -6 18 -13 20 -6 2 -13 14 -14 26 -3 16 2 23
19 27 12 2 254 3 536 2 l515 -2 2 -30 c1 -16 -4 -133 -12 -260 -18 -299 -23
-451 -14 -465 10 -16 18 66 30 320 15 289 26 420 38 432 5 5 22 8 38 6 l29 -3
-1 -105 c-1 -58 -7 -193 -13 -300 -18 -298 -30 -511 -36 -660 -4 -74 -8 -165
-10 -202 -2 -38 1 -68 6 -68 5 0 9 39 9 88 0 48 3 119 5 157 6 82 33 521 40
645 13 221 27 417 31 433 4 14 14 17 42 15 l36 -3 -2 -104 c-1 -57 -7 -167
-13 -245 -6 -78 -13 -190 -15 -251 -6 -165 -33 -604 -40 -654 -5 -34 -4 -43 7
-39 10 3 15 29 16 99 2 52 12 243 23 424 11 182 24 411 30 510 6 99 13 199 16
223 5 40 7 42 40 42 22 0 37 -6 40 -15 4 -8 -1 -120 -10 -248 -18 -259 -20
-296 -29 -587 -5 -179 -5 -186 3 -55 4 83 13 220 19 305 6 85 16 243 21 350
14 259 12 250 63 251 23 1 34 3 24 6 -10 2 -17 10 -16 16 1 7 1 27 0 45 l-1
32 -1445 0 c-850 0 -1445 -4 -1445 -9z m1281 -113 c23 -25 23 -28 6 -28 -8 0
-19 11 -25 25 -14 31 -6 32 19 3z m129 -9 c0 -10 -5 -19 -11 -19 -5 0 -8 4 -5
9 4 5 1 11 -6 13 -6 2 -8 10 -4 16 10 17 26 5 26 -19z m190 -74 c0 -5 -5 -3
-10 5 -5 8 -10 20 -10 25 0 6 5 3 10 -5 5 -8 10 -19 10 -25z m244 -43 c8 -13
-11 -35 -23 -28 -16 10 -14 36 3 36 8 0 17 -4 20 -8z m238 -137 c-3 -20 -7
-23 -18 -14 -20 16 -17 39 5 39 14 0 17 -6 13 -25z m-1345 -21 c-3 -3 -12 -4
-19 -1 -8 3 -5 6 6 6 11 1 17 -2 13 -5z m-37 -44 c8 -5 12 -12 8 -15 -8 -8
-58 5 -58 16 0 12 31 11 50 -1z m1467 -122 c-3 -8 -6 -5 -6 6 -1 11 2 17 5 13
3 -3 4 -12 1 -19z m-97 -116 c0 -21 -2 -24 -10 -12 -13 20 -13 53 0 45 6 -3
10 -18 10 -33z m310 -162 c0 -5 -2 -10 -4 -10 -3 0 -8 5 -11 10 -3 6 -1 10 4
10 6 0 11 -4 11 -10z m-9 -65 c4 -6 4 -17 0 -24 -9 -14 -21 19 -20 54 l1 20 5
-20 c3 -11 9 -25 14 -30z m-961 -230 c10 -13 9 -15 -8 -15 -22 0 -36 13 -25
24 10 10 20 7 33 -9z m40 5 c0 -5 -4 -10 -10 -10 -5 0 -10 5 -10 10 0 6 5 10
10 10 6 0 10 -4 10 -10z m30 -35 c7 -9 11 -17 8 -20 -2 -2 -12 4 -21 15 -9 11
-13 20 -8 20 5 0 14 -7 21 -15z m10 -59 c-6 -6 -15 -4 -25 4 -23 19 -18 29 9
17 15 -7 21 -16 16 -21z m-65 4 c3 -6 -1 -7 -9 -4 -18 7 -21 14 -7 14 6 0 13
-4 16 -10z m1010 -28 c-6 -7 -35 18 -35 31 0 5 9 2 20 -8 11 -10 18 -20 15
-23z m-753 -72 c11 -22 14 -36 8 -38 -7 -3 -7 -9 1 -18 7 -8 7 -14 1 -14 -5 0
-15 7 -22 15 -9 10 -9 15 -1 15 19 0 12 26 -14 54 -21 22 -22 27 -8 24 10 -2
26 -19 35 -38z m46 -45 c-3 -3 -9 2 -12 12 -6 14 -5 15 5 6 7 -7 10 -15 7 -18z
m-81 -87 c-3 -8 -6 -5 -6 6 -1 11 2 17 5 13 3 -3 4 -12 1 -19z m33 -38 c0 -5
-4 -10 -10 -10 -5 0 -10 5 -10 10 0 6 5 10 10 10 6 0 10 -4 10 -10z m750 -45
c0 -8 -4 -15 -10 -15 -5 0 -7 7 -4 15 4 8 8 15 10 15 2 0 4 -7 4 -15z"/>
<path d="M3341 5774 c0 -11 3 -14 6 -6 3 7 2 16 -1 19 -3 4 -6 -2 -5 -13z"/>
<path d="M3620 5514 c0 -8 5 -12 10 -9 6 4 8 11 5 16 -9 14 -15 11 -15 -7z"/>
<path d="M5275 5190 c3 -5 8 -10 11 -10 2 0 4 5 4 10 0 6 -5 10 -11 10 -5 0
-7 -4 -4 -10z"/>
<path d="M3880 5100 c0 -5 5 -10 11 -10 5 0 7 5 4 10 -3 6 -8 10 -11 10 -2 0
-4 -4 -4 -10z"/>
<path d="M5250 5080 c0 -15 26 -18 43 -5 15 10 13 12 -13 13 -17 0 -30 -3 -30
-8z"/>
<path d="M3855 5060 c3 -5 8 -10 11 -10 2 0 4 5 4 10 0 6 -5 10 -11 10 -5 0
-7 -4 -4 -10z"/>
<path d="M5000 5020 c-7 -17 -11 -33 -9 -35 9 -9 28 12 34 38 10 37 -9 35 -25
-3z"/>
<path d="M5462 4934 c-1 -15 3 -24 13 -24 18 0 20 24 2 38 -10 8 -13 5 -15
-14z"/>
<path d="M2710 4931 c0 -6 4 -13 10 -16 6 -3 7 1 4 9 -7 18 -14 21 -14 7z"/>
<path d="M5638 4903 c-26 -7 -22 -20 8 -27 31 -8 39 -3 31 19 -7 15 -9 16 -39
8z"/>
<path d="M2730 4890 c0 -5 5 -10 10 -10 6 0 10 5 10 10 0 6 -4 10 -10 10 -5 0
-10 -4 -10 -10z"/>
<path d="M4183 4770 c0 -41 2 -58 4 -37 2 20 2 54 0 75 -2 20 -4 3 -4 -38z"/>
<path d="M1910 4790 l-25 -8 28 -1 c15 -1 27 4 27 9 0 6 -1 10 -2 9 -2 -1 -14
-5 -28 -9z"/>
<path d="M3890 4699 c0 -5 -4 -8 -9 -5 -11 7 -2 -34 10 -50 5 -6 7 -14 4 -18
-3 -3 0 -2 6 3 7 5 8 18 3 32 -4 13 -7 30 -6 37 2 6 0 12 -3 12 -3 0 -5 -5 -5
-11z"/>
<path d="M4172 4670 c0 -14 2 -19 5 -12 2 6 2 18 0 25 -3 6 -5 1 -5 -13z"/>
<path d="M4660 4682 c0 -4 -17 -6 -37 -4 -21 3 -36 2 -33 -1 11 -11 66 -11 85
1 17 10 18 11 3 12 -10 0 -18 -4 -18 -8z"/>
<path d="M3890 4599 c0 -5 5 -7 10 -4 6 3 10 8 10 11 0 2 -4 4 -10 4 -5 0 -10
-5 -10 -11z"/>
<path d="M3443 4578 c-35 -25 -42 -38 -19 -38 7 0 16 8 19 19 2 10 17 21 33
24 33 6 110 -17 137 -41 16 -15 17 -14 11 1 -9 24 -76 57 -116 57 -18 0 -48
-10 -65 -22z"/>
<path d="M2304 4531 c-13 -14 -112 -51 -136 -51 -30 0 -103 -64 -103 -91 0
-13 5 -27 10 -31 6 -4 1 -8 -10 -8 -11 0 -15 -4 -10 -8 26 -19 26 -99 0 -118
-18 -13 -17 -14 7 -14 27 0 41 20 32 43 -3 8 3 23 13 35 16 18 24 20 62 13 24
-5 48 -16 53 -25 5 -9 16 -16 23 -16 20 0 19 -27 0 -38 -23 -12 -8 -41 24 -48
14 -3 38 -12 52 -19 14 -8 45 -18 69 -24 53 -12 84 1 101 40 6 16 15 29 20 29
5 0 9 5 9 10 0 6 -10 10 -22 10 -19 0 -20 2 -6 18 9 9 13 24 10 32 -4 13 -3
13 10 2 12 -9 18 -10 23 -2 4 6 27 21 53 33 56 27 62 41 25 60 -29 15 -160 40
-203 39 -14 0 -45 2 -70 5 -35 4 -41 7 -27 15 10 5 15 14 11 19 -3 6 4 7 19 4
19 -5 28 -2 35 12 9 17 21 19 84 17 61 -3 68 -1 44 8 -19 7 -24 13 -16 18 8 5
-8 12 -41 19 -91 20 -133 23 -145 12z m206 -181 c0 -10 -17 -12 -105 -15 -60
-1 -77 9 -25 16 75 10 130 10 130 -1z m-70 -66 c-21 -25 -50 -37 -50 -21 0 10
27 27 59 36 2 1 -2 -6 -9 -15z"/>
<path d="M3886 4475 c-3 -8 -1 -25 4 -37 8 -20 9 -18 9 15 1 39 -3 47 -13 22z"/>
<path d="M3420 4444 c0 -8 19 -24 44 -35 25 -11 54 -31 65 -46 l21 -26 0 25
c0 35 -18 54 -73 78 -58 24 -57 24 -57 4z"/>
<path d="M4046 4363 c-4 -48 -15 -103 -24 -122 l-16 -34 -21 27 c-26 32 -35
33 -35 2 0 -33 -29 -145 -47 -179 -10 -20 -11 -32 -4 -41 8 -9 3 -28 -16 -67
-15 -29 -28 -60 -30 -69 -1 -8 -5 -26 -8 -40 -3 -14 -2 -30 3 -37 11 -18 187
-26 213 -10 16 10 22 9 29 -3 28 -45 30 -46 44 -27 15 20 28 104 31 202 1 33
5 146 10 252 7 162 6 193 -6 196 -8 2 -30 10 -49 16 -72 26 -66 31 -74 -66z"/>
<path d="M4700 4405 c-5 -14 -10 -33 -10 -41 0 -8 -4 -14 -8 -14 -11 0 -32
-46 -32 -70 0 -25 11 -25 40 0 16 14 26 17 31 9 7 -12 19 41 22 101 3 45 -28
55 -43 15z"/>
<path d="M1966 4393 c-5 -11 8 -29 40 -60 75 -70 81 -58 14 30 -39 51 -45 55
-54 30z"/>
<path d="M3360 4389 c0 -20 21 -50 31 -44 5 4 31 -10 58 -29 48 -35 71 -44 71
-28 0 9 -75 72 -85 72 -4 0 -18 9 -32 20 -29 22 -43 25 -43 9z"/>
<path d="M3027 4333 c-3 -16 -1 -32 4 -37 5 -6 9 4 9 27 0 44 -6 48 -13 10z"/>
<path d="M5301 4336 c-17 -20 -26 -86 -13 -86 6 0 9 -7 6 -15 -4 -10 0 -15 15
-15 18 0 19 3 11 26 -6 14 -7 30 -4 36 10 15 13 68 4 68 -4 0 -13 -6 -19 -14z"/>
<path d="M3142 4310 c0 -14 2 -19 5 -12 2 6 2 18 0 25 -3 6 -5 1 -5 -13z"/>
<path d="M5440 4290 c0 -5 5 -10 10 -10 6 0 10 5 10 10 0 6 -4 10 -10 10 -5 0
-10 -4 -10 -10z"/>
<path d="M3104 4253 c-8 -31 -8 -42 2 -49 9 -6 12 -22 7 -52 -3 -25 -9 -39
-13 -32 -10 17 -30 3 -30 -20 0 -10 -8 -21 -17 -23 -17 -4 -17 -5 0 -6 9 0 17
-6 17 -12 0 -6 -6 -9 -14 -6 -8 3 -17 -1 -20 -9 -3 -8 -1 -14 4 -14 6 0 10
-11 10 -24 0 -14 4 -27 9 -30 4 -3 6 6 3 20 -3 17 0 24 8 22 13 -3 33 49 24
64 -3 4 0 8 6 8 6 0 15 12 21 26 14 38 22 23 11 -20 -6 -20 -7 -34 -2 -31 5 3
11 19 15 35 4 17 11 30 16 30 6 0 8 -8 5 -17 -2 -10 -7 -28 -11 -41 -4 -14 -1
-30 7 -39 11 -14 11 -16 -1 -8 -11 6 -13 4 -8 -9 4 -10 7 -24 7 -32 0 -9 4
-13 9 -10 13 9 19 65 7 70 -6 2 -3 5 7 5 25 1 22 40 -9 108 -15 32 -28 70 -29
86 -3 35 -15 48 -16 16 -1 -21 -2 -21 -8 5 l-6 29 -11 -40z"/>
<path d="M5415 4249 c-4 -6 -5 -13 -2 -16 7 -7 27 6 27 18 0 12 -17 12 -25 -2z"/>
<path d="M4703 4203 c-27 -5 -30 -29 -7 -61 24 -34 35 -26 33 23 -2 25 -3 44
-3 44 -1 -1 -11 -4 -23 -6z"/>
<path d="M3086 4191 c-3 -5 1 -11 9 -15 8 -3 15 -1 15 4 0 13 -18 22 -24 11z"/>
<path d="M3515 4084 c-16 -14 -40 -30 -53 -35 -33 -13 -18 -30 16 -18 30 10
82 54 82 69 0 16 -13 11 -45 -16z"/>
<path d="M5372 4071 c-19 -61 -14 -68 13 -17 29 55 29 56 12 56 -8 0 -19 -17
-25 -39z"/>
<path d="M3350 4060 c0 -5 5 -10 11 -10 5 0 7 5 4 10 -3 6 -8 10 -11 10 -2 0
-4 -4 -4 -10z"/>
<path d="M3398 4043 c7 -3 16 -2 19 1 4 3 -2 6 -13 5 -11 0 -14 -3 -6 -6z"/>
<path d="M2344 3963 c1 -33 -3 -39 -38 -59 -21 -12 -66 -27 -100 -34 -67 -13
-96 -25 -96 -40 0 -6 15 -10 33 -11 17 0 26 -3 19 -6 -6 -2 -10 -8 -7 -13 3
-4 -2 -24 -10 -44 -19 -45 -19 -61 1 -81 15 -15 18 -14 31 5 18 25 33 26 33 1
0 -35 94 -56 127 -29 7 6 22 8 33 5 10 -3 24 1 31 9 6 8 22 14 35 14 12 0 35
5 51 11 24 9 30 7 45 -11 14 -17 15 -26 7 -42 -10 -19 -10 -19 18 -1 15 10 36
27 45 38 17 20 17 20 23 0 21 -59 31 -75 49 -75 17 0 18 5 11 63 -4 34 -8 70
-8 79 -1 9 -4 16 -7 15 -3 -1 -22 16 -41 38 -33 38 -33 39 -6 22 16 -10 31
-16 34 -13 10 9 -80 86 -107 92 -55 12 -105 37 -143 70 -52 44 -65 43 -63 -3z
m75 -80 c14 -17 19 -34 15 -47 -7 -24 -34 -55 -34 -40 0 6 -19 11 -42 12 -24
1 -44 7 -46 12 -2 6 -16 10 -30 11 -27 0 -27 0 -4 11 12 6 22 15 22 20 0 4 6
8 13 8 7 0 20 9 30 20 23 27 52 25 76 -7z"/>
<path d="M5343 3959 c-12 -30 -11 -32 3 -17 9 8 14 23 12 33 -2 12 -7 7 -15
-16z"/>
<path d="M5707 3978 c-6 -18 4 -111 13 -121 14 -16 21 51 10 92 -11 44 -16 49
-23 29z"/>
<path d="M4860 3949 c0 -17 4 -28 10 -24 6 3 10 17 10 31 0 13 -4 24 -10 24
-5 0 -10 -14 -10 -31z"/>
<path d="M5377 3954 c-4 -4 -7 -14 -7 -23 0 -31 -54 -130 -73 -135 -14 -3 -18
-11 -15 -29 3 -17 -1 -28 -15 -36 -13 -9 -17 -19 -13 -36 3 -12 0 -38 -8 -56
-12 -30 -12 -37 2 -64 14 -26 16 -28 20 -10 2 11 11 28 19 37 12 13 18 15 27
5 27 -26 27 -68 1 -169 -22 -85 -24 -105 -14 -135 6 -19 8 -50 5 -69 -11 -54
5 -63 21 -13 17 51 29 148 42 340 6 87 17 155 29 192 16 43 18 68 13 114 -7
60 -22 99 -34 87z"/>
<path d="M4770 3845 c0 -15 4 -24 10 -20 6 3 10 12 10 20 0 8 -4 17 -10 20 -6
4 -10 -5 -10 -20z"/>
<path d="M2054 3804 c11 -8 35 -14 55 -14 46 0 36 8 -25 19 -43 8 -47 8 -30
-5z"/>
<path d="M5682 3787 c-5 -7 -12 -44 -14 -84 -3 -43 -13 -88 -26 -113 l-20 -41
26 3 c25 3 28 8 34 61 4 33 14 73 23 90 8 16 15 42 15 57 0 30 -23 46 -38 27z"/>
<path d="M4852 3770 c0 -14 2 -19 5 -12 2 6 2 18 0 25 -3 6 -5 1 -5 -13z"/>
<path d="M3880 3713 c0 -6 12 -25 28 -41 23 -25 34 -29 82 -29 53 0 54 0 20 9
-60 17 -111 41 -120 57 -5 9 -10 11 -10 4z"/>
<path d="M5405 3700 c3 -10 11 -37 19 -61 l13 -44 8 38 c4 23 3 48 -3 61 -12
27 -45 32 -37 6z"/>
<path d="M4521 3677 c-7 -10 -20 -17 -27 -17 -8 0 -14 -6 -14 -13 0 -16 35
-16 51 0 6 6 9 19 7 28 -3 17 -4 17 -17 2z"/>
<path d="M2991 3644 c-12 -14 -12 -17 0 -25 20 -13 35 -11 22 2 -6 6 -9 18 -6
25 7 18 1 17 -16 -2z"/>
<path d="M4367 3643 c-33 -17 -29 -28 8 -19 14 4 25 13 25 21 0 8 -1 15 -2 14
-2 -1 -16 -8 -31 -16z"/>
<path d="M3060 3632 c0 -12 19 -26 26 -19 2 2 -2 10 -11 17 -9 8 -15 8 -15 2z"/>
<path d="M3255 3632 c8 -8 55 -11 55 -3 0 4 -13 8 -30 8 -16 0 -28 -2 -25 -5z"/>
<path d="M2489 3622 c7 -5 10 -15 7 -21 -4 -6 -2 -11 4 -11 17 0 8 33 -10 37
-12 4 -13 3 -1 -5z"/>
<path d="M3139 3609 c-10 -20 -9 -21 17 -16 26 5 27 4 10 -9 -10 -7 -23 -11
-27 -8 -5 3 -9 0 -9 -6 0 -7 -6 -10 -14 -7 -7 3 -18 1 -24 -5 -8 -8 -16 -7
-28 3 -16 12 -17 12 -11 -3 8 -23 2 -23 -23 2 -12 12 -26 18 -32 14 -7 -5 -9
-2 -5 8 3 10 -3 20 -20 27 -23 11 -25 10 -14 -3 8 -9 10 -24 6 -37 -7 -20 -8
-20 -17 -6 -5 10 -7 21 -4 25 3 4 -5 14 -17 22 -20 12 -21 12 -8 -4 12 -14 12
-19 2 -25 -9 -6 -7 -16 8 -42 12 -19 24 -42 27 -51 4 -10 13 -18 22 -18 8 0
13 -2 10 -5 -3 -3 -33 1 -67 9 -38 9 -61 10 -61 4 0 -5 9 -12 20 -15 11 -3 20
-13 20 -22 0 -11 -3 -13 -8 -4 -4 7 -23 16 -42 19 -24 5 -31 4 -26 -4 5 -8 0
-12 -13 -12 -12 0 -21 -4 -21 -10 0 -5 8 -10 18 -10 26 0 49 -17 37 -29 -7 -7
-29 -4 -65 8 -50 17 -57 17 -73 3 -9 -8 -17 -20 -16 -26 1 -6 1 -19 0 -30 -1
-25 -24 -6 -41 34 -12 28 -40 42 -40 20 0 -5 4 -10 10 -10 5 0 14 -9 20 -20 9
-16 8 -19 -7 -13 -13 5 -15 3 -9 -12 6 -18 6 -18 -11 -2 -22 19 -49 7 -40 -17
4 -9 4 -16 1 -16 -2 0 -9 11 -14 25 -12 31 -26 32 -35 3 -4 -16 -8 -19 -12 -9
-3 7 -8 9 -12 4 -15 -21 -73 -54 -87 -49 -8 3 -17 -1 -20 -9 -3 -7 -19 -17
-36 -20 -39 -9 -44 -27 -22 -78 19 -43 33 -59 45 -51 4 2 12 -3 19 -11 7 -8
21 -15 32 -15 21 0 60 -18 69 -32 7 -11 5 -44 -12 -200 -13 -122 -4 -150 52
-170 16 -5 27 -14 24 -19 -3 -5 -8 -22 -10 -39 -2 -17 -20 -55 -39 -85 -75
-112 -112 -215 -135 -370 -5 -38 -14 -99 -20 -135 -5 -36 -17 -105 -26 -154
-20 -108 -11 -183 31 -246 25 -37 29 -57 37 -159 12 -156 14 -198 16 -319 l1
-103 38 -16 c29 -12 72 -15 203 -14 l167 1 11 -33 c7 -17 18 -43 26 -57 24
-44 78 -154 86 -175 7 -19 18 -88 22 -147 1 -14 5 -30 10 -34 13 -14 8 -139
-8 -160 -8 -10 -15 -27 -15 -36 0 -10 -7 -18 -15 -18 -8 0 -15 -9 -15 -19 0
-11 -7 -26 -15 -35 -8 -8 -12 -22 -9 -30 4 -11 0 -16 -11 -16 -9 0 -19 -9 -22
-20 -3 -11 -14 -20 -24 -20 -19 0 -23 -12 -19 -57 1 -13 -3 -23 -8 -23 -4 0
-7 -13 -4 -28 2 -16 -2 -35 -10 -43 -8 -8 -17 -22 -21 -31 -9 -24 -27 -23 -27
2 0 27 -17 25 -26 -2 -4 -13 -2 -24 5 -26 6 -2 11 -10 11 -18 0 -11 29 -14
160 -14 118 0 160 3 160 12 0 9 3 9 12 0 9 -9 304 -12 1265 -12 1200 0 1253 1
1253 18 0 10 5 23 12 30 9 9 9 12 0 12 -7 0 -12 14 -12 35 0 19 5 35 10 35 10
0 8 5 -17 56 -7 13 -8 26 -1 38 5 9 10 55 11 101 1 50 6 86 13 89 6 2 10 24 8
48 -2 61 -3 62 -17 50 -9 -8 -11 0 -8 35 4 52 -23 113 -51 113 -20 0 -25 20
-5 20 6 0 4 5 -5 11 -10 5 -18 21 -18 34 0 32 -28 23 -36 -11 -7 -27 -14 -30
-32 -12 -9 9 -16 8 -29 -5 -15 -15 -15 -18 10 -43 15 -15 27 -32 27 -38 0 -18
-22 -36 -42 -36 -9 0 -29 -5 -44 -12 -25 -12 -26 -15 -21 -74 2 -35 0 -69 -6
-80 -11 -18 -12 -23 -15 -54 -2 -11 -5 -11 -14 -2 -7 7 -20 12 -29 12 -10 0
-20 8 -22 18 -4 14 -5 13 -6 -4 0 -11 8 -30 19 -42 l21 -22 -21 0 c-19 0 -21
-5 -20 -42 3 -65 1 -78 -10 -78 -5 0 -10 20 -10 45 0 35 -3 43 -15 39 -11 -5
-15 1 -15 26 0 17 -4 29 -9 25 -5 -3 -12 4 -16 15 -9 27 -22 25 -29 -5 -6 -22
-12 -25 -51 -25 -35 0 -43 -3 -39 -15 4 -8 1 -15 -5 -15 -6 0 -11 6 -12 13 -1
6 -4 1 -8 -13 l-8 -25 -13 28 c-7 15 -19 27 -27 27 -9 0 -13 13 -13 39 0 22
-5 41 -12 44 -10 4 -10 7 0 18 20 21 14 37 -14 37 -16 0 -23 -5 -20 -13 2 -7
2 -16 -1 -19 -10 -9 -32 27 -33 54 l-1 25 -10 -25 c-7 -16 -7 -32 0 -47 6 -13
8 -23 5 -23 -12 0 -34 72 -34 110 0 24 -7 47 -17 58 -10 10 -23 27 -30 38 -11
17 -12 15 -13 -16 0 -25 -3 -31 -9 -20 -6 8 -8 17 -5 21 2 4 0 10 -6 14 -5 3
-10 1 -10 -4 0 -6 -4 -11 -9 -11 -15 0 -23 38 -12 58 8 15 5 29 -10 58 -11 22
-22 57 -25 79 -3 22 -8 47 -11 55 -4 8 -8 33 -9 55 -2 22 -6 63 -10 91 -5 45
-4 53 12 57 27 8 316 73 404 91 102 20 198 34 308 45 l94 9 41 45 c47 51 145
103 162 86 12 -12 14 -374 2 -529 -4 -58 -14 -215 -22 -350 -15 -258 -23 -351
-31 -412 l-6 -38 110 0 109 0 12 40 c6 21 23 52 36 68 14 17 25 40 25 52 0 18
3 20 14 11 10 -9 17 -6 30 13 15 23 16 165 16 1636 0 1432 -2 1614 -15 1641
-9 16 -20 27 -25 24 -5 -3 -11 -1 -15 5 -3 5 -13 10 -21 10 -8 0 -24 9 -36 20
-12 11 -30 20 -40 20 -10 0 -18 5 -18 10 0 6 -11 15 -25 20 -14 5 -25 14 -25
20 0 5 -6 10 -14 10 -10 0 -15 -18 -18 -60 -3 -47 -11 -67 -34 -97 -16 -21
-38 -51 -49 -68 -21 -32 -95 -179 -92 -180 1 -1 38 -8 82 -16 l80 -14 2 -107
c2 -125 -8 -144 -58 -116 -16 10 -31 13 -34 7 -4 -5 -30 -9 -58 -9 -66 0 -122
28 -123 61 -1 29 33 69 58 69 10 0 18 4 18 9 0 5 -42 11 -93 13 -87 3 -93 2
-93 -17 0 -11 32 -54 71 -95 39 -41 79 -87 88 -102 14 -22 25 -28 55 -28 20 0
67 -3 105 -7 61 -5 67 -8 67 -29 0 -22 -1 -22 -88 -17 l-88 6 88 -179 87 -179
1 -89 c0 -49 -2 -87 -4 -85 -3 2 -12 37 -20 77 -16 76 -84 219 -120 250 -19
16 -19 16 -12 -3 13 -31 20 -61 13 -55 -3 3 -22 30 -44 61 -39 58 -98 129
-108 129 -11 0 -45 35 -45 47 0 17 15 16 52 -3 16 -9 27 -11 24 -5 -4 5 -42
26 -84 46 -61 29 -81 43 -92 68 -8 18 -22 41 -32 51 -10 11 -18 23 -18 27 0 4
-9 11 -21 14 -11 4 -18 12 -16 18 2 7 -16 36 -40 65 -25 28 -42 52 -38 52 16
0 135 -65 173 -95 77 -60 143 -126 136 -137 -4 -6 -3 -8 3 -5 11 7 67 -63 112
-135 26 -43 35 -49 22 -14 -21 55 -102 158 -182 231 -86 79 -170 147 -189 153
-6 2 -10 12 -10 22 0 10 -9 20 -21 23 -20 5 -20 5 -2 -15 13 -15 14 -20 3 -16
-8 2 -21 17 -30 33 -8 15 -25 32 -38 36 -27 10 -28 -1 -2 -29 12 -12 16 -22
11 -22 -5 0 -13 4 -16 10 -3 5 -26 24 -51 41 -33 22 -48 28 -58 20 -14 -12
-73 19 -82 44 -7 16 -39 21 -48 7 -3 -5 -19 -7 -37 -4 l-31 5 27 -42 c16 -23
26 -44 23 -47 -11 -11 -88 70 -88 93 0 19 -5 23 -30 23 -18 0 -29 5 -27 12 1
6 -12 21 -30 32 -25 16 -32 28 -33 53 0 33 -3 35 -69 48 -24 5 -30 10 -20 16
12 7 11 9 -1 9 -13 0 -13 1 0 10 12 7 8 10 -15 11 -16 0 -23 3 -15 6 17 7 -62
33 -102 33 -16 0 -28 4 -28 8 0 5 -15 8 -34 8 -19 -1 -32 -5 -29 -9 9 -14 -70
4 -103 24 -17 10 -34 16 -37 12 -4 -3 -7 -1 -7 6 0 19 -69 44 -85 31 -10 -8
-21 -8 -42 3 -40 20 -105 29 -100 14 4 -12 -8 -50 -34 -112 -6 -16 -14 -39
-16 -49 -39 -205 -163 -538 -222 -598 -9 -9 -32 -38 -50 -66 -19 -27 -52 -58
-72 -70 l-37 -21 -31 34 c-17 19 -31 41 -31 50 0 9 -9 15 -25 15 -14 0 -25 3
-25 8 0 4 -12 12 -26 19 -20 9 -26 9 -31 -3 -3 -8 -14 -14 -25 -14 -18 0 -19
2 -7 17 13 15 12 16 -8 11 -13 -4 -23 -2 -23 3 0 5 -7 9 -16 9 -8 0 -29 14
-47 30 -25 23 -29 32 -19 39 12 7 12 12 1 30 -8 11 -17 21 -22 21 -4 0 -5 5
-1 11 3 6 0 15 -7 20 -11 7 -12 11 -1 17 10 7 9 12 -4 23 -12 9 -15 10 -10 2
5 -9 1 -13 -13 -13 -19 0 -21 7 -12 63 0 4 8 7 16 7 8 0 15 5 15 11 0 7 -10 9
-24 5 -14 -3 -28 -1 -31 4 -4 6 -11 8 -16 4 -12 -7 -7 18 6 29 6 5 3 7 -7 3
-12 -3 -18 0 -18 9 0 10 10 15 28 15 20 0 32 8 45 30 14 22 26 30 47 30 16 0
32 5 35 10 14 22 26 9 20 -22 -5 -30 -5 -31 9 -15 10 14 15 15 19 5 4 -10 6
-10 6 0 1 6 10 12 21 12 24 0 25 6 6 26 -9 9 -17 10 -21 4 -3 -5 -12 -10 -18
-9 -9 0 -9 2 0 5 7 3 9 13 6 22 -3 10 -1 13 4 7 4 -5 19 -12 33 -13 20 -3 22
-1 13 9 -10 9 -8 18 8 41 17 23 18 28 5 28 -19 0 -20 10 -4 45 7 16 19 25 35
25 12 0 23 5 23 11 0 6 -7 9 -15 6 -8 -4 -17 -2 -20 3 -4 6 0 10 7 10 38 0 45
92 10 133 -20 23 -42 22 -42 -2 0 -25 -18 -37 -33 -22 -8 8 -6 15 9 26 18 14
16 15 -26 10 -36 -4 -40 -3 -20 5 23 9 23 9 -7 5 -20 -3 -36 1 -43 11 -8 8
-17 11 -24 6 -23 -18 -45 -22 -39 -6 8 22 -5 17 -18 -7z m116 -39 c3 -5 1 -10
-4 -10 -6 0 -11 5 -11 10 0 6 2 10 4 10 3 0 8 -4 11 -10z m1050 -66 c9 3 13 2
10 -4 -10 -16 -42 -12 -49 6 -5 14 -4 15 9 4 8 -7 22 -10 30 -6z m-42 -81 c-7
-2 -21 -2 -30 0 -10 3 -4 5 12 5 17 0 24 -2 18 -5z m132 -53 c3 -6 -1 -7 -9
-4 -18 7 -21 14 -7 14 6 0 13 -4 16 -10z m-1635 -20 c0 -5 -2 -10 -4 -10 -3 0
-8 5 -11 10 -3 6 -1 10 4 10 6 0 11 -4 11 -10z m2277 -170 c14 -11 20 -20 14
-20 -19 0 -51 19 -51 30 0 15 9 12 37 -10z m-2122 -149 c17 -1 17 -3 5 -15
-27 -27 -85 -24 -100 4 -10 19 -8 20 32 16 24 -3 52 -5 63 -5z m143 -107 c18
-23 32 -47 32 -54 0 -7 8 -19 18 -26 9 -7 12 -14 5 -14 -12 0 -61 67 -89 123
-18 36 -12 30 34 -29z m70 -129 c-3 -3 -9 2 -12 12 -6 14 -5 15 5 6 7 -7 10
-15 7 -18z m2229 9 c-3 -3 -12 -4 -19 -1 -8 3 -5 6 6 6 11 1 17 -2 13 -5z m73
-146 c32 -57 38 -78 16 -55 -16 15 -56 87 -56 99 0 18 11 5 40 -44z m214 -823
l7 -40 -15 40 c-9 22 -16 47 -16 55 1 27 18 -11 24 -55z m5 -82 c0 -25 -1 -26
-9 -8 -12 27 -12 35 0 35 6 0 10 -12 9 -27z m-41 -8 c-3 -3 -9 2 -12 12 -6 14
-5 15 5 6 7 -7 10 -15 7 -18z m62 -113 c0 -7 -4 -10 -10 -7 -5 3 -10 16 -10
28 0 18 2 19 10 7 5 -8 10 -21 10 -28z m11 -49 c14 -38 21 -101 13 -115 -4 -6
-16 7 -30 33 -28 53 -29 59 -9 59 11 0 14 7 9 25 -8 34 4 32 17 -2z m35 -168
c7 -19 14 -41 14 -50 0 -26 -17 -17 -24 13 -3 15 -8 37 -12 50 -10 35 5 26 22
-13z m-22 -27 c3 -13 1 -27 -3 -31 -11 -11 -35 29 -26 43 10 17 22 11 29 -12z
m-2455 -918 c23 -52 41 -100 41 -106 0 -6 26 -45 58 -85 31 -41 71 -94 87
-118 17 -25 47 -56 67 -70 51 -36 55 -51 13 -51 -18 0 -37 -4 -40 -10 -4 -6
-26 -2 -58 10 -29 11 -62 20 -73 20 -12 0 -61 20 -110 45 -48 25 -96 45 -106
45 -22 0 -23 -11 7 123 27 125 47 229 50 267 4 43 5 45 14 35 5 -6 28 -53 50
-105z m2201 60 c0 -15 -6 -19 -22 -17 -20 2 -24 -4 -29 -43 -6 -51 -14 -39
-23 33 l-6 47 40 0 c33 0 40 -3 40 -20z m-323 -242 c-3 -8 -6 -5 -6 6 -1 11 2
17 5 13 3 -3 4 -12 1 -19z m170 -45 c-3 -10 -5 -2 -5 17 0 19 2 27 5 18 2 -10
2 -26 0 -35z m-284 -8 c-5 -13 -23 -22 -23 -11 0 15 14 35 21 31 4 -3 6 -12 2
-20z m117 -95 c0 -5 -4 -10 -10 -10 -5 0 -10 5 -10 10 0 6 5 10 10 10 6 0 10
-4 10 -10z m-40 -40 c0 -11 -7 -20 -15 -20 -18 0 -19 12 -3 28 16 16 18 15 18
-8z m-1993 -42 c-3 -8 -6 -5 -6 6 -1 11 2 17 5 13 3 -3 4 -12 1 -19z"/>
<path d="M5101 3614 c0 -11 3 -14 6 -6 3 7 2 16 -1 19 -3 4 -6 -2 -5 -13z"/>
<path d="M2387 3580 c-9 -11 -29 -20 -44 -20 -26 0 -26 -1 -11 -17 15 -14 22
-15 56 -4 21 7 49 22 62 33 l25 20 -27 -5 c-16 -2 -28 0 -28 4 0 15 -15 10
-33 -11z"/>
<path d="M4268 3548 c5 -5 16 -8 23 -6 8 3 3 7 -10 11 -17 4 -21 3 -13 -5z"/>
<path d="M5072 3513 c-6 -10 -13 -38 -16 -63 l-6 -45 25 49 c14 28 25 56 25
63 0 19 -18 16 -28 -4z"/>
<path d="M2865 3510 c3 -5 14 -10 23 -10 15 0 15 2 2 10 -20 13 -33 13 -25 0z"/>
<path d="M5487 3503 c-2 -5 -5 -30 -6 -58 -1 -27 -13 -76 -26 -108 -12 -32
-21 -66 -18 -76 3 -11 -4 -28 -16 -40 l-21 -21 38 0 c32 0 41 5 50 25 7 14 12
34 12 43 0 9 11 51 25 93 l26 76 -22 37 c-20 35 -34 44 -42 29z"/>
<path d="M4746 3493 c-3 -3 -6 -26 -6 -50 0 -32 4 -43 15 -43 11 0 15 12 15
44 0 43 -10 63 -24 49z"/>
<path d="M2795 3480 c-18 -8 -17 -9 8 -9 16 -1 26 3 22 9 -3 6 -7 10 -8 9 -1
0 -11 -4 -22 -9z"/>
<path d="M2405 3450 c3 -5 0 -8 -7 -5 -7 2 -22 -2 -32 -10 -17 -13 -18 -18 -6
-39 17 -33 37 -36 82 -11 46 24 48 39 8 60 -33 17 -54 20 -45 5z"/>
<path d="M2634 3438 c1 -7 12 -14 24 -16 16 -3 22 2 21 15 0 10 -3 13 -6 6 -6
-16 -29 -17 -36 -3 -3 6 -4 5 -3 -2z"/>
<path d="M4951 3397 c-7 -21 -11 -41 -8 -44 9 -9 28 37 25 60 -3 18 -6 15 -17
-16z"/>
<path d="M5151 3394 c-12 -28 -7 -44 15 -44 9 0 14 11 14 35 0 41 -12 45 -29
9z"/>
<path d="M4700 3350 c0 -5 5 -10 11 -10 5 0 7 5 4 10 -3 6 -8 10 -11 10 -2 0
-4 -4 -4 -10z"/>
<path d="M4748 3313 c7 -3 16 -2 19 1 4 3 -2 6 -13 5 -11 0 -14 -3 -6 -6z"/>
<path d="M3181 3214 c0 -11 3 -14 6 -6 3 7 2 16 -1 19 -3 4 -6 -2 -5 -13z"/>
<path d="M5620 3076 c0 -9 39 -13 51 -5 10 6 4 9 -18 9 -18 0 -33 -2 -33 -4z"/>
<path d="M3390 2870 c-8 -5 -12 -11 -10 -14 3 -2 14 2 24 10 22 15 10 19 -14
4z"/>
<path d="M5592 2685 c16 -39 39 -85 43 -85 7 0 -14 50 -31 73 -9 12 -14 18
-12 12z"/>
<path d="M5438 746 c-3 -14 -2 -26 3 -26 14 0 20 20 11 36 -8 14 -10 12 -14
-10z"/>
<path d="M4955 630 c-3 -5 -1 -10 4 -10 6 0 11 5 11 10 0 6 -2 10 -4 10 -3 0
-8 -4 -11 -10z"/>
<path d="M5410 610 c0 -5 4 -10 9 -10 6 0 13 5 16 10 3 6 -1 10 -9 10 -9 0
-16 -4 -16 -10z"/>
<path d="M5300 416 c0 -9 5 -16 10 -16 6 0 10 4 10 9 0 6 -4 13 -10 16 -5 3
-10 -1 -10 -9z"/>
<path d="M5061 393 c0 -10 4 -27 9 -38 7 -18 8 -18 15 7 7 28 1 48 -16 48 -5
0 -9 -8 -8 -17z"/>
<path d="M2388 384 c0 -5 -2 -13 -3 -19 -2 -5 -3 -17 -4 -25 -1 -12 -5 -11
-16 4 -15 20 -15 20 -16 0 -1 -10 -1 -23 0 -29 2 -5 -3 -38 -9 -74 -9 -51 -9
-66 2 -72 11 -7 11 -9 0 -9 -7 0 -11 -4 -8 -9 3 -5 -1 -22 -9 -37 -11 -22 -12
-30 -2 -33 6 -2 22 -16 35 -30 19 -22 24 -24 32 -11 8 12 10 11 10 -7 0 -31
24 -29 47 3 11 15 31 28 44 29 35 4 35 4 11 21 -27 19 -30 39 -3 22 17 -10 23
-8 40 13 28 33 26 41 -6 33 -27 -7 -27 -7 -10 10 17 17 17 20 1 45 -22 32 -40
51 -46 46 -2 -2 -4 8 -3 23 0 19 -6 28 -20 30 -20 5 -48 37 -52 60 -2 17 -12
28 -15 16z"/>
<path d="M2780 165 c-11 -13 -10 -14 4 -9 9 3 16 10 16 15 0 13 -6 11 -20 -6z"/>
<path d="M2585 150 c3 -5 8 -10 11 -10 2 0 4 5 4 10 0 6 -5 10 -11 10 -5 0 -7
-4 -4 -10z"/>
<path d="M2758 103 c7 -3 16 -2 19 1 4 3 -2 6 -13 5 -11 0 -14 -3 -6 -6z"/>
</g>
</svg>
